# Blender v2.79 (sub 0) OBJ File: 'chapa.blend'
# www.blender.org
mtllib chapa.mtl
o Cylinder_Cylinder.001
v 0.000000 0.500000 1.000000
v 0.233247 0.500000 1.172612
v 0.382683 0.500000 0.923880
v 0.664232 0.500000 0.994093
v 0.707107 0.500000 0.707107
v 0.994093 0.500000 0.664232
v 0.923880 0.500000 0.382684
v 1.172612 0.500000 0.233247
v 1.000000 0.500000 0.000000
v 1.172612 0.500000 -0.233247
v 0.923880 0.500000 -0.382683
v 0.994093 0.500000 -0.664231
v 0.707107 0.500000 -0.707107
v 0.664231 0.500000 -0.994093
v 0.382683 0.500000 -0.923879
v 0.233247 0.500000 -1.172612
v -0.000000 0.500000 -1.000000
v -0.233248 0.500000 -1.172612
v -0.382684 0.500000 -0.923879
v -0.664232 0.500000 -0.994092
v -0.707107 0.500000 -0.707106
v -0.994093 0.500000 -0.664231
v -0.923880 0.500000 -0.382683
v -1.172612 0.500000 -0.233246
v -1.000000 0.500000 0.000001
v -1.172612 0.500000 0.233248
v -0.923879 0.500000 0.382685
v -0.994092 0.500000 0.664233
v -0.707106 0.500000 0.707108
v -0.664230 0.500000 0.994094
v -0.382682 0.500000 0.923880
v -0.233245 0.500000 1.172613
v -0.000000 0.041944 0.758839
v 0.000000 0.161944 1.000000
v -0.000000 0.077091 0.929366
v 0.148042 0.041944 0.744258
v 0.195090 0.161944 0.980785
v 0.181310 0.077091 0.911508
v 0.290395 0.041944 0.701076
v 0.382683 0.161944 0.923880
v 0.355653 0.077091 0.858622
v 0.421588 0.041944 0.630951
v 0.555570 0.161944 0.831470
v 0.516328 0.077091 0.772739
v 0.536580 0.041944 0.536580
v 0.707107 0.161944 0.707107
v 0.657161 0.077091 0.657161
v 0.630951 0.041944 0.421588
v 0.831470 0.161944 0.555570
v 0.772739 0.077091 0.516328
v 0.701076 0.041944 0.290395
v 0.923880 0.161944 0.382683
v 0.858622 0.077091 0.355653
v 0.744258 0.041944 0.148042
v 0.980785 0.161944 0.195090
v 0.911508 0.077091 0.181310
v 0.758839 0.041944 0.000000
v 1.000000 0.161944 0.000000
v 0.929365 0.077091 0.000000
v 0.744258 0.041944 -0.148042
v 0.980785 0.161944 -0.195090
v 0.911508 0.077092 -0.181310
v 0.701076 0.041944 -0.290395
v 0.923880 0.161944 -0.382683
v 0.858622 0.077092 -0.355653
v 0.630951 0.041944 -0.421588
v 0.831470 0.161944 -0.555570
v 0.772739 0.077092 -0.516328
v 0.536580 0.041944 -0.536580
v 0.707107 0.161944 -0.707107
v 0.657161 0.077092 -0.657161
v 0.421588 0.041944 -0.630951
v 0.555570 0.161945 -0.831470
v 0.516328 0.077092 -0.772739
v 0.290395 0.041944 -0.701076
v 0.382683 0.161945 -0.923880
v 0.355653 0.077092 -0.858622
v 0.148042 0.041945 -0.744258
v 0.195090 0.161945 -0.980785
v 0.181310 0.077092 -0.911508
v -0.000000 0.041945 -0.758839
v -0.000000 0.161945 -1.000000
v -0.000000 0.077092 -0.929365
v -0.148042 0.041945 -0.744258
v -0.195091 0.161945 -0.980785
v -0.181311 0.077092 -0.911508
v -0.290395 0.041944 -0.701075
v -0.382684 0.161945 -0.923879
v -0.355653 0.077092 -0.858622
v -0.421589 0.041944 -0.630951
v -0.555571 0.161945 -0.831469
v -0.516328 0.077092 -0.772739
v -0.536580 0.041944 -0.536580
v -0.707107 0.161944 -0.707106
v -0.657161 0.077092 -0.657160
v -0.630952 0.041944 -0.421588
v -0.831470 0.161944 -0.555570
v -0.772740 0.077092 -0.516327
v -0.701076 0.041944 -0.290395
v -0.923880 0.161944 -0.382683
v -0.858622 0.077092 -0.355652
v -0.744258 0.041944 -0.148041
v -0.980785 0.161944 -0.195089
v -0.911508 0.077092 -0.181309
v -0.758839 0.041944 0.000001
v -1.000000 0.161944 0.000001
v -0.929366 0.077091 0.000001
v -0.744258 0.041944 0.148043
v -0.980785 0.161944 0.195091
v -0.911508 0.077091 0.181311
v -0.701075 0.041944 0.290396
v -0.923879 0.161944 0.382685
v -0.858621 0.077091 0.355654
v -0.630951 0.041944 0.421589
v -0.831469 0.161944 0.555571
v -0.772739 0.077091 0.516329
v -0.536579 0.041944 0.536581
v -0.707106 0.161944 0.707108
v -0.657160 0.077091 0.657162
v -0.421587 0.041944 0.630952
v -0.555569 0.161944 0.831470
v -0.516327 0.077091 0.772740
v -0.290394 0.041944 0.701076
v -0.382682 0.161944 0.923880
v -0.355651 0.077091 0.858622
v -0.148041 0.041944 0.744258
v -0.195089 0.161944 0.980786
v -0.181309 0.077091 0.911508
vt 0.275870 0.946249
vt 0.605380 -0.139999
vt -0.102499 0.238370
vt 0.080566 0.841857
vt 0.173077 0.903670
vt 0.001893 0.763184
vt -0.059921 0.670673
vt -0.124205 0.458756
vt -0.102499 0.567879
vt -0.124205 0.347494
vt 0.001892 0.043067
vt -0.059922 0.135579
vt 0.080567 -0.035607
vt 0.173078 -0.097421
vt 0.275871 -0.139999
vt 0.384994 -0.161705
vt 0.496257 -0.161705
vt 0.800684 -0.035607
vt 0.708173 -0.097421
vt 0.941171 0.135578
vt 0.879358 0.043068
vt 0.983749 0.567880
vt 0.983749 0.238370
vt 1.005455 0.347495
vt 1.005455 0.458757
vt 0.879357 0.763183
vt 0.941171 0.670672
vt 0.800683 0.841858
vt 0.708172 0.903671
vt 0.496256 0.967955
vt 0.605380 0.946249
vt 0.384994 0.967955
vt 0.000000 0.000000
vt 0.000000 0.000000
vt 0.000000 0.000000
vt 0.000000 0.000000
vt 0.000000 0.000000
vt 0.000000 0.000000
vt 0.000000 0.000000
vt 0.000000 0.000000
vt 0.000000 0.000000
vt 0.000000 0.000000
vt 0.000000 0.000000
vt 0.000000 0.000000
vt 0.000000 0.000000
vt 0.000000 0.000000
vt 0.000000 0.000000
vt 0.000000 0.000000
vt 0.000000 0.000000
vt 0.000000 0.000000
vt 0.000000 0.000000
vt 0.000000 0.000000
vt 0.000000 0.000000
vt 0.000000 0.000000
vt 0.000000 0.000000
vt 0.000000 0.000000
vt 0.000000 0.000000
vt 0.000000 0.000000
vt 0.000000 0.000000
vt 0.000000 0.000000
vt 0.000000 0.000000
vt 0.000000 0.000000
vt 0.000000 0.000000
vt 0.000000 0.000000
vt 0.000000 0.000000
vt 0.000000 0.000000
vt 0.000000 0.000000
vt 0.000000 0.000000
vt 0.000000 0.000000
vt 0.000000 0.000000
vt 0.000000 0.000000
vt 0.000000 0.000000
vt 0.000000 0.000000
vt 0.000000 0.000000
vt 0.000000 0.000000
vt 0.000000 0.000000
vt 0.000000 0.000000
vt 0.000000 0.000000
vt 0.000000 0.000000
vt 0.000000 0.000000
vt 0.000000 0.000000
vt 0.000000 0.000000
vt 0.000000 0.000000
vt 0.000000 0.000000
vt 0.000000 0.000000
vt 0.000000 0.000000
vt 0.000000 0.000000
vt 0.000000 0.000000
vt 0.000000 0.000000
vt 0.000000 0.000000
vt 0.000000 0.000000
vt 0.000000 0.000000
vt 0.000000 0.000000
vt 0.000000 0.000000
vt 0.000000 0.000000
vt 0.000000 0.000000
vt 0.000000 0.000000
vt 0.000000 0.000000
vt 0.000000 0.000000
vt 0.000000 0.000000
vt 0.000000 0.000000
vt 0.000000 0.000000
vt 0.000000 0.000000
vt 0.000000 0.000000
vt 0.000000 0.000000
vt 0.000000 0.000000
vt 0.000000 0.000000
vt 0.000000 0.000000
vt 0.000000 0.000000
vt 0.000000 0.000000
vt 0.000000 0.000000
vt 0.000000 0.000000
vt 0.000000 0.000000
vt 0.000000 0.000000
vt 0.000000 0.000000
vt 0.000000 0.000000
vt 0.000000 0.000000
vt 0.000000 0.000000
vt 0.000000 0.000000
vt 0.000000 0.000000
vt 0.000000 0.000000
vt 0.000000 0.000000
vt 0.000000 0.000000
vt 0.000000 0.000000
vt 0.000000 0.000000
vt 0.000000 0.000000
vt 0.000000 0.000000
vt 0.000000 0.000000
vt 0.000000 0.000000
vt 0.000000 0.000000
vt 0.000000 0.000000
vt 0.000000 0.000000
vt 0.000000 0.000000
vt 0.000000 0.000000
vt 0.000000 0.000000
vt 0.000000 0.000000
vt 0.000000 0.000000
vt 0.000000 0.000000
vt 0.000000 0.000000
vt 0.000000 0.000000
vt 0.000000 0.000000
vt 0.000000 0.000000
vt 0.000000 0.000000
vt 0.000000 0.000000
vt 0.000000 0.000000
vt 0.000000 0.000000
vt 0.000000 0.000000
vt 0.000000 0.000000
vt 0.000000 0.000000
vt 0.000000 0.000000
vt 0.000000 0.000000
vt 0.000000 0.000000
vt 0.000000 0.000000
vt 0.000000 0.000000
vt 0.000000 0.000000
vt 0.000000 0.000000
vt 0.000000 0.000000
vt 0.000000 0.000000
vt 0.000000 0.000000
vt 0.000000 0.000000
vn -0.0412 0.9942 -0.0995
vn 0.0412 0.9942 0.0995
vn 0.0995 0.9942 -0.0412
vn 0.0000 0.9942 -0.1077
vn -0.0210 0.9942 -0.1056
vn 0.0210 0.9942 -0.1056
vn 0.0412 0.9942 -0.0995
vn 0.0761 0.9942 -0.0761
vn 0.0598 0.9942 -0.0895
vn 0.0895 0.9942 -0.0598
vn 0.1077 0.9942 0.0000
vn 0.1056 0.9942 -0.0210
vn 0.1056 0.9942 0.0210
vn 0.0995 0.9942 0.0412
vn 0.0895 0.9942 0.0598
vn 0.0761 0.9942 0.0761
vn 0.0598 0.9942 0.0895
vn 0.0000 0.9942 0.1077
vn 0.0210 0.9942 0.1056
vn -0.0412 0.9942 0.0995
vn -0.0210 0.9942 0.1056
vn -0.0995 0.9942 0.0412
vn -0.0598 0.9942 0.0895
vn -0.0761 0.9942 0.0761
vn -0.0895 0.9942 0.0598
vn -0.1077 0.9942 0.0000
vn -0.1056 0.9942 0.0210
vn -0.1056 0.9942 -0.0210
vn -0.0995 0.9942 -0.0412
vn -0.0761 0.9942 -0.0761
vn -0.0895 0.9942 -0.0598
vn -0.0598 0.9942 -0.0895
vn 0.1770 0.4202 -0.8900
vn 0.1689 0.5008 -0.8489
vn 0.0000 0.2917 -0.9565
vn -0.3660 0.2917 -0.8837
vn -0.4809 0.5008 -0.7197
vn -0.5041 0.4202 -0.7544
vn -0.6764 0.2917 -0.6764
vn -0.7197 0.5008 -0.4809
vn -0.7544 0.4202 -0.5041
vn -0.8837 0.2917 -0.3660
vn -0.8489 0.5008 -0.1689
vn -0.8900 0.4202 -0.1770
vn -0.9565 0.2917 0.0000
vn -0.8489 0.5008 0.1689
vn -0.8900 0.4202 0.1770
vn -0.8837 0.2917 0.3660
vn -0.7197 0.5008 0.4809
vn -0.7544 0.4202 0.5041
vn -0.6764 0.2917 0.6764
vn -0.4809 0.5008 0.7197
vn -0.5041 0.4202 0.7544
vn -0.3660 0.2917 0.8837
vn -0.1689 0.5008 0.8489
vn -0.1770 0.4202 0.8900
vn 0.0000 0.2917 0.9565
vn 0.1689 0.5008 0.8489
vn 0.1770 0.4202 0.8900
vn 0.3660 0.2917 0.8837
vn 0.4809 0.5008 0.7197
vn 0.5041 0.4202 0.7544
vn 0.6764 0.2917 0.6764
vn 0.7197 0.5008 0.4809
vn 0.7544 0.4202 0.5041
vn 0.8837 0.2917 0.3660
vn 0.8489 0.5008 0.1689
vn 0.8900 0.4202 0.1770
vn 0.9565 0.2917 0.0000
vn 0.8489 0.5008 -0.1689
vn 0.8900 0.4202 -0.1770
vn 0.8837 0.2917 -0.3660
vn 0.7197 0.5008 -0.4809
vn 0.7544 0.4202 -0.5041
vn 0.6764 0.2917 -0.6764
vn 0.4809 0.5008 -0.7197
vn 0.5041 0.4202 -0.7544
vn 0.3660 0.2917 -0.8837
vn -0.1689 0.5008 -0.8489
vn -0.1770 0.4202 -0.8900
vn -0.1032 0.8487 -0.5188
vn 0.0000 0.8487 -0.5289
vn -0.3608 0.3336 -0.8709
vn -0.2024 0.8487 -0.4887
vn -0.2939 0.8487 -0.4398
vn -0.6666 0.3336 -0.6666
vn -0.3740 0.8487 -0.3740
vn -0.4398 0.8487 -0.2939
vn -0.8709 0.3336 -0.3608
vn -0.4887 0.8486 -0.2024
vn -0.5188 0.8487 -0.1032
vn -0.9427 0.3336 0.0000
vn -0.5289 0.8487 0.0000
vn -0.5188 0.8487 0.1032
vn -0.8709 0.3336 0.3608
vn -0.4887 0.8486 0.2024
vn -0.4398 0.8487 0.2939
vn -0.6666 0.3336 0.6666
vn -0.3740 0.8486 0.3740
vn -0.2939 0.8487 0.4398
vn -0.3608 0.3336 0.8709
vn -0.2024 0.8486 0.4887
vn -0.1032 0.8486 0.5188
vn 0.0000 0.3336 0.9427
vn 0.0000 0.8487 0.5289
vn 0.1032 0.8486 0.5188
vn 0.3608 0.3336 0.8709
vn 0.2024 0.8486 0.4887
vn 0.2939 0.8486 0.4398
vn 0.6666 0.3336 0.6666
vn 0.3740 0.8487 0.3740
vn 0.4398 0.8487 0.2939
vn 0.8709 0.3336 0.3608
vn 0.4887 0.8487 0.2024
vn 0.5188 0.8486 0.1032
vn 0.9427 0.3336 0.0000
vn 0.5289 0.8487 0.0000
vn 0.5188 0.8487 -0.1032
vn 0.8709 0.3336 -0.3608
vn 0.4887 0.8487 -0.2024
vn 0.4398 0.8487 -0.2939
vn 0.6666 0.3336 -0.6666
vn 0.3740 0.8487 -0.3740
vn 0.2939 0.8487 -0.4398
vn 0.3608 0.3336 -0.8709
vn 0.2024 0.8487 -0.4887
vn 0.1032 0.8487 -0.5188
vn 0.0000 0.3336 -0.9427
usemtl Marca
s 1
f 39/1/1 87/2/2 111/3/3
f 39/1/1 33/4/4 36/5/5
f 33/4/4 39/1/1 126/6/6
f 126/6/6 39/1/1 123/7/7
f 123/7/7 117/8/8 120/9/9
f 117/8/8 111/3/3 114/10/10
f 111/3/3 105/11/11 108/12/12
f 105/11/11 111/3/3 102/13/13
f 102/13/13 111/3/3 99/14/14
f 99/14/14 87/2/2 96/15/15
f 96/15/15 87/2/2 93/16/16
f 93/16/16 87/2/2 90/17/17
f 87/2/2 81/18/18 84/19/19
f 81/18/18 75/20/20 78/21/21
f 75/20/20 63/22/22 72/23/23
f 72/23/23 63/22/22 69/24/24
f 69/24/24 63/22/22 66/25/25
f 63/22/22 57/26/26 60/27/27
f 57/26/26 63/22/22 54/28/28
f 54/28/28 63/22/22 51/29/29
f 51/29/29 45/30/30 48/31/31
f 45/30/30 51/29/29 42/32/32
f 42/32/32 51/29/29 39/1/1
f 123/7/7 111/3/3 117/8/8
f 87/2/2 63/22/22 81/18/18
f 81/18/18 63/22/22 75/20/20
f 39/1/1 111/3/3 123/7/7
f 111/3/3 87/2/2 99/14/14
f 63/22/22 87/2/2 51/29/29
f 51/29/29 87/2/2 39/1/1
usemtl Material.001
f 127/33/33 32/34/34 1/35/35
f 3/36/36 4/37/37 43/38/38
f 43/38/38 4/37/37 5/39/39
f 5/39/39 6/40/40 49/41/41
f 49/41/41 6/40/40 7/42/42
f 7/42/42 8/43/43 55/44/44
f 55/44/44 8/43/43 9/45/45
f 9/45/45 10/46/46 61/47/47
f 61/47/47 10/46/46 11/48/48
f 11/48/48 12/49/49 67/50/50
f 67/50/50 12/49/49 13/51/51
f 13/51/51 14/52/52 73/53/53
f 73/53/53 14/52/52 15/54/54
f 15/54/54 16/55/55 79/56/56
f 79/56/56 16/55/55 17/57/57
f 17/57/57 18/58/58 85/59/59
f 85/59/59 18/58/58 19/60/60
f 19/60/60 20/61/61 91/62/62
f 91/62/62 20/61/61 21/63/63
f 21/63/63 22/64/64 97/65/65
f 97/65/65 22/64/64 23/66/66
f 23/66/66 24/67/67 103/68/68
f 103/68/68 24/67/67 25/69/69
f 25/69/69 26/70/70 109/71/71
f 109/71/71 26/70/70 27/72/72
f 27/72/72 28/73/73 115/74/74
f 115/74/74 28/73/73 29/75/75
f 29/75/75 30/76/76 121/77/77
f 121/77/77 30/76/76 31/78/78
f 31/78/78 32/34/34 127/33/33
f 1/35/35 2/79/79 37/80/80
f 37/80/80 2/79/79 3/36/36
f 37/80/80 38/81/81 35/82/82
f 35/82/82 38/81/81 36/83/5
f 37/80/80 40/84/83 41/85/84
f 38/81/81 41/85/84 39/86/1
f 40/84/83 43/38/38 44/87/85
f 44/87/85 42/88/32 39/86/1
f 46/89/86 47/90/87 44/87/85
f 44/87/85 47/90/87 45/91/30
f 49/41/41 50/92/88 47/90/87
f 47/90/87 50/92/88 48/93/31
f 52/94/89 53/95/90 50/92/88
f 50/92/88 53/95/90 51/96/29
f 52/94/89 55/44/44 56/97/91
f 53/95/90 56/97/91 54/98/28
f 55/44/44 58/99/92 59/100/93
f 56/97/91 59/100/93 57/101/26
f 58/99/92 61/47/47 62/102/94
f 59/100/93 62/102/94 60/103/27
f 61/47/47 64/104/95 65/105/96
f 62/102/94 65/105/96 63/106/22
f 64/104/95 67/50/50 68/107/97
f 65/105/96 68/107/97 66/108/25
f 67/50/50 70/109/98 71/110/99
f 68/107/97 71/110/99 69/111/24
f 70/109/98 73/53/53 74/112/100
f 71/110/99 74/112/100 72/113/23
f 73/53/53 76/114/101 77/115/102
f 74/112/100 77/115/102 75/116/20
f 76/114/101 79/56/56 80/117/103
f 80/117/103 78/118/21 75/116/20
f 79/56/56 82/119/104 83/120/105
f 80/117/103 83/120/105 81/121/18
f 82/119/104 85/59/59 86/122/106
f 83/120/105 86/122/106 84/123/19
f 88/124/107 89/125/108 86/122/106
f 89/125/108 87/126/2 84/123/19
f 88/124/107 91/62/62 92/127/109
f 92/127/109 90/128/17 87/126/2
f 91/62/62 94/129/110 95/130/111
f 95/130/111 93/131/16 90/128/17
f 94/129/110 97/65/65 98/132/112
f 95/130/111 98/132/112 96/133/15
f 97/65/65 100/134/113 101/135/114
f 98/132/112 101/135/114 99/136/14
f 100/134/113 103/68/68 104/137/115
f 104/137/115 102/138/13 99/136/14
f 103/68/68 106/139/116 107/140/117
f 107/140/117 105/141/11 102/138/13
f 106/139/116 109/71/71 110/142/118
f 110/142/118 108/143/12 105/141/11
f 112/144/119 113/145/120 110/142/118
f 113/145/120 111/146/3 108/143/12
f 112/144/119 115/74/74 116/147/121
f 113/145/120 116/147/121 114/148/10
f 115/74/74 118/149/122 119/150/123
f 116/147/121 119/150/123 117/151/8
f 121/77/77 122/152/124 119/150/123
f 119/150/123 122/152/124 120/153/9
f 124/154/125 125/155/126 122/152/124
f 122/152/124 125/155/126 123/156/7
f 127/33/33 128/157/127 125/155/126
f 128/157/127 126/158/6 123/156/7
f 127/33/33 34/159/128 35/82/82
f 128/157/127 35/82/82 33/160/4
f 127/33/33 1/35/35 34/159/128
f 3/36/36 43/38/38 40/84/83
f 43/38/38 5/39/39 46/89/86
f 5/39/39 49/41/41 46/89/86
f 49/41/41 7/42/42 52/94/89
f 7/42/42 55/44/44 52/94/89
f 55/44/44 9/45/45 58/99/92
f 9/45/45 61/47/47 58/99/92
f 61/47/47 11/48/48 64/104/95
f 11/48/48 67/50/50 64/104/95
f 67/50/50 13/51/51 70/109/98
f 13/51/51 73/53/53 70/109/98
f 73/53/53 15/54/54 76/114/101
f 15/54/54 79/56/56 76/114/101
f 79/56/56 17/57/57 82/119/104
f 17/57/57 85/59/59 82/119/104
f 85/59/59 19/60/60 88/124/107
f 19/60/60 91/62/62 88/124/107
f 91/62/62 21/63/63 94/129/110
f 21/63/63 97/65/65 94/129/110
f 97/65/65 23/66/66 100/134/113
f 23/66/66 103/68/68 100/134/113
f 103/68/68 25/69/69 106/139/116
f 25/69/69 109/71/71 106/139/116
f 109/71/71 27/72/72 112/144/119
f 27/72/72 115/74/74 112/144/119
f 115/74/74 29/75/75 118/149/122
f 29/75/75 121/77/77 118/149/122
f 121/77/77 31/78/78 124/154/125
f 31/78/78 127/33/33 124/154/125
f 1/35/35 37/80/80 34/159/128
f 37/80/80 3/36/36 40/84/83
f 37/80/80 35/82/82 34/159/128
f 35/82/82 36/83/5 33/160/4
f 37/80/80 41/85/84 38/81/81
f 38/81/81 39/86/1 36/83/5
f 40/84/83 44/87/85 41/85/84
f 44/87/85 39/86/1 41/85/84
f 46/89/86 44/87/85 43/38/38
f 44/87/85 45/91/30 42/88/32
f 49/41/41 47/90/87 46/89/86
f 47/90/87 48/93/31 45/91/30
f 52/94/89 50/92/88 49/41/41
f 50/92/88 51/96/29 48/93/31
f 52/94/89 56/97/91 53/95/90
f 53/95/90 54/98/28 51/96/29
f 55/44/44 59/100/93 56/97/91
f 56/97/91 57/101/26 54/98/28
f 58/99/92 62/102/94 59/100/93
f 59/100/93 60/103/27 57/101/26
f 61/47/47 65/105/96 62/102/94
f 62/102/94 63/106/22 60/103/27
f 64/104/95 68/107/97 65/105/96
f 65/105/96 66/108/25 63/106/22
f 67/50/50 71/110/99 68/107/97
f 68/107/97 69/111/24 66/108/25
f 70/109/98 74/112/100 71/110/99
f 71/110/99 72/113/23 69/111/24
f 73/53/53 77/115/102 74/112/100
f 74/112/100 75/116/20 72/113/23
f 76/114/101 80/117/103 77/115/102
f 80/117/103 75/116/20 77/115/102
f 79/56/56 83/120/105 80/117/103
f 80/117/103 81/121/18 78/118/21
f 82/119/104 86/122/106 83/120/105
f 83/120/105 84/123/19 81/121/18
f 88/124/107 86/122/106 85/59/59
f 89/125/108 84/123/19 86/122/106
f 88/124/107 92/127/109 89/125/108
f 92/127/109 87/126/2 89/125/108
f 91/62/62 95/130/111 92/127/109
f 95/130/111 90/128/17 92/127/109
f 94/129/110 98/132/112 95/130/111
f 95/130/111 96/133/15 93/131/16
f 97/65/65 101/135/114 98/132/112
f 98/132/112 99/136/14 96/133/15
f 100/134/113 104/137/115 101/135/114
f 104/137/115 99/136/14 101/135/114
f 103/68/68 107/140/117 104/137/115
f 107/140/117 102/138/13 104/137/115
f 106/139/116 110/142/118 107/140/117
f 110/142/118 105/141/11 107/140/117
f 112/144/119 110/142/118 109/71/71
f 113/145/120 108/143/12 110/142/118
f 112/144/119 116/147/121 113/145/120
f 113/145/120 114/148/10 111/146/3
f 115/74/74 119/150/123 116/147/121
f 116/147/121 117/151/8 114/148/10
f 121/77/77 119/150/123 118/149/122
f 119/150/123 120/153/9 117/151/8
f 124/154/125 122/152/124 121/77/77
f 122/152/124 123/156/7 120/153/9
f 127/33/33 125/155/126 124/154/125
f 128/157/127 123/156/7 125/155/126
f 127/33/33 35/82/82 128/157/127
f 128/157/127 33/160/4 126/158/6
